<?xml version="1.0" encoding="UTF-8"?>
<svg id="_圖層_1" data-name="圖層 1" xmlns="http://www.w3.org/2000/svg" viewBox="0 0 1156 1846.25">
  <defs>
    <style>
      .cls-1 {
        fill: none;
        stroke: #bfbfbf;
        stroke-linecap: round;
        stroke-linejoin: round;
        stroke-width: 10px;
      }
    </style>
  </defs>
  <path class="cls-1" d="M312.52,29.94h512.47c.29,0,.59,0,.88,0,82.27.81,148.94,67.99,148.94,150.45s-66.67,149.64-148.94,150.45c-.29,0-.58,0-.88,0H312.95c-32.42,0-58.79,26.37-58.79,58.79s26.37,58.79,58.79,58.79h512.05c.29,0,.59,0,.88,0,82.27.81,148.94,67.99,148.94,150.45s-66.67,149.64-148.94,150.45c-.29,0-.58,0-.88,0H312.63c-61.52,0-111.58,50.05-111.58,111.58s50.05,111.58,111.58,111.58h217.51l8.37-7.03c60.96-88.9,163.28-147.22,279.22-147.22,186.85,0,338.31,151.47,338.31,338.31s-151.47,338.31-338.31,338.31c-99.58,0-189.1-43.02-251.01-111.49l-10.55-6.09H177.31c-32.05,0-58.12,26.07-58.12,58.12s26.07,58.12,58.12,58.12c3.17,0,6.31.25,9.4.75h319.23c32.92,0,59.61,26.69,59.61,59.61v277.15"/>
  <path class="cls-1" d="M446.32,1831.06v-217.54H178.06c-3.76,0-7.47-.35-11.11-1.05C73.96,1607.09-.04,1529.73-.04,1435.42s79.56-177.35,177.35-177.35h436.98l12.05,3.66c37.15,67.46,108.93,113.17,191.39,113.17,120.59,0,218.34-97.75,218.34-218.34s-97.75-218.34-218.34-218.34c-91.07,0-169.11,55.75-201.86,134.99l-303.23.43c-117.29,0-212.72-95.43-212.72-212.72s95.43-212.72,212.72-212.72h511.73c27.19,0,49.31-22.12,49.31-49.31s-22.12-49.31-49.31-49.31h-511.41c-88.19,0-159.94-71.75-159.94-159.94s71.75-159.94,159.94-159.94h511.41c27.19,0,49.31-22.12,49.31-49.31s-22.12-49.31-49.31-49.31h-511.84"/>
</svg>