<?xml version="1.0" encoding="UTF-8"?>
<svg id="_圖層_1" data-name="圖層 1" xmlns="http://www.w3.org/2000/svg" viewBox="0 0 1216 1772">
  <defs>
    <style>
      .cls-1 {
        fill: none;
        stroke: #bfbfbf;
        stroke-linecap: round;
        stroke-linejoin: round;
        stroke-width: 10px;
      }
    </style>
  </defs>
  <g>
    <path class="cls-1" d="M526.55-.45h372.66c.3,0,.6,0,.89,0,83.76.82,151.65,69.22,151.65,153.17v379.09c0,84.47-68.72,153.18-153.18,153.18s-153.18-68.72-153.18-153.18c0-2.78.22-5.5.64-8.16v-172.9c-.42-2.66-.64-5.38-.64-8.16,0-27.68-22.52-50.2-50.2-50.2s-50.2,22.52-50.2,50.2c0,2.77-.22,5.5-.64,8.16v181.07c0,3.41-.33,6.74-.96,9.97-5.16,79.83-71.75,143.21-152.86,143.21s-147.71-63.38-152.86-143.21c-.63-3.23-.96-6.56-.96-9.97v-181.07c-.42-2.66-.64-5.38-.64-8.16,0-27.68-22.52-50.2-50.2-50.2s-50.2,22.52-50.2,50.2c0,2.77-.22,5.5-.64,8.16v387.26c.42,2.66.64,5.38.64,8.13,0,27.68,22.52,50.2,50.2,50.2h706.29c2.66-.42,5.38-.64,8.13-.64"/>
    <path class="cls-1" d="M1006.29,899.05c-1.78.19-3.58.28-5.4.28H285.19c-.3,0-.6,0-.89,0-80.11-.79-145.7-63.39-151.26-142.29-.68-3.33-1.03-6.76-1.03-10.24v-413.21c0-5.91,1-11.59,2.83-16.88,12.34-72.18,75.35-127.29,150.99-127.29s138.66,55.11,150.99,127.29c1.84,5.29,2.83,10.97,2.83,16.88v190.07c.42,2.66.64,5.38.64,8.16,0,27.68,22.52,50.2,50.2,50.2s50.2-22.52,50.2-50.2c0-2.78.22-5.5.64-8.16v-190.07c0-5.91,1-11.59,2.83-16.88,12.34-72.18,75.35-127.29,150.99-127.29s138.66,55.11,150.99,127.29c1.84,5.29,2.83,10.97,2.83,16.88v198.24c0,1.94-.11,3.86-.32,5.74,2.86,24.99,24.14,44.46,49.88,44.46,27.68,0,50.2-22.52,50.2-50.2V152.73c0-27.68-22.52-50.2-50.2-50.2h-372.01"/>
  </g>
  <g>
    <path class="cls-1" d="M486.1,897.87c.29,0,.59,0,.88,0h515.05c61.85,0,112.16,50.32,112.16,112.16s-50.32,112.16-112.16,112.16c0,0-323.09,0-437.67,0l-2.85-3.17c-55.42-80.82-148.43-133.84-253.83-133.84-169.86,0-307.55,137.7-307.55,307.55s137.7,307.55,307.55,307.55c90.52,0,171.91-39.11,228.19-101.35l9.59-5.54c90.77,0,344.41,0,344.41,0,29.14,0,52.84,23.7,52.84,52.84,0,29.14-23.7,52.84-52.84,52.84-2.88,0-5.74.23-8.54.68h-290.2c-29.93,0-54.19,24.26-54.19,54.19v118.49"/>
    <path class="cls-1" d="M645.32,1772.45v-64.29s243.88,0,243.88,0c3.41,0,6.79-.32,10.1-.95,84.53-4.9,151.8-75.22,151.8-160.96,0-88.9-72.33-161.23-161.23-161.23,0,0-315.45,0-397.25,0l-10.95,3.33c-33.77,61.33-99.03,102.88-173.99,102.88-109.62,0-198.49-88.87-198.49-198.49s88.87-198.49,198.49-198.49c82.79,0,153.74,50.68,183.51,122.71l7.44,6.9c142.63,0,503.4,0,503.4,0,117.91,0,213.84-95.93,213.84-213.84,0-117.91-95.93-213.84-213.84-213.84H487.62"/>
  </g>
</svg>