<svg width="760" height="1283" viewBox="0 0 760 1283" fill="none" xmlns="http://www.w3.org/2000/svg">
<path d="M143 8H544.5C561.069 8 574.5 21.4315 574.5 38V319C574.5 335.569 561.069 349 544.5 349H325C308.431 349 295 362.431 295 379V384.5C295 401.069 308.431 414.5 325 414.5H722C738.569 414.5 752 427.931 752 444.5V633C752 649.569 738.569 663 722 663H229.75C181.839 663 143 701.839 143 749.75V749.75C143 797.661 181.839 836.5 229.75 836.5H611C627.569 836.5 641 849.931 641 866.5V1170.5C641 1187.07 627.569 1200.5 611 1200.5H238.5C221.931 1200.5 208.5 1213.93 208.5 1230.5V1275.5" stroke="url(#paint0_radial_10_2)" stroke-width="15" stroke-linecap="round"/>
<path d="M149 135H423C439.569 135 453 148.431 453 165V197.5C453 214.069 439.569 227.5 423 227.5H193C176.431 227.5 163 240.931 163 257.5V502C163 518.569 176.431 532 193 532H619C624.799 532 629.5 536.701 629.5 542.5V542.5C629.5 548.299 624.799 553 619 553H208C97.543 553 8 643.043 8 753.5V753.5C8 863.957 97.5431 954 208 954H471.5C488.069 954 501.5 967.431 501.5 984V1024C501.5 1040.57 488.069 1054 471.5 1054H73C56.4315 1054 43 1067.43 43 1084V1271" stroke="url(#paint1_radial_10_2)" stroke-width="15" stroke-linecap="round"/>
<defs>
<radialGradient id="paint0_radial_10_2" cx="0" cy="0" r="1" gradientUnits="userSpaceOnUse" gradientTransform="translate(359 25) rotate(90) scale(1251 425.883)">
<stop stop-color="white" stop-opacity="0.8"/>
<stop offset="0.454116" stop-color="#999999"/>
<stop offset="1" stop-color="white" stop-opacity="0.8"/>
</radialGradient>
<radialGradient id="paint1_radial_10_2" cx="0" cy="0" r="1" gradientUnits="userSpaceOnUse" gradientTransform="translate(217.5 34.5002) rotate(89.5749) scale(1213.03 486.147)">
<stop stop-color="white" stop-opacity="0.8"/>
<stop offset="0.508637" stop-color="#999999"/>
<stop offset="1" stop-color="white" stop-opacity="0.8"/>
</radialGradient>
</defs>
</svg>
